<svg version="1.0" xmlns="http://www.w3.org/2000/svg" width="378.667" height="258.667" viewBox="0 0 284 194"><path d="M113.3 24c-12.6 1.4-22.2 9-37.6 29.5l-6.7 9V97h9.3l-.6-3.3c-.8-4.9 1-12.6 3.9-17 1.4-2.1 4.6-5.1 7.1-6.8 4-2.5 5.7-2.9 11.4-2.9 9.1 0 16.1 3.6 20.4 10.5 2.6 4.2 3 5.8 3 12.2V97h57.7l-.6-3.6c-1.2-5.9 1-13.6 5.1-18.4 4.7-5.4 10.2-8 17.3-8 14.3 0 24.8 11.1 23.8 25l-.3 5H239v-9c0-7.1.3-9.2 1.5-9.6 1.2-.5 1.5-2.5 1.5-9.5 0-8.7-.1-8.9-2.5-9.5-1.4-.4-2.9-.3-3.3 0-.3.4-.6 4.7-.4 9.7.1 7.2-.1 8.9-1.3 8.9-.8 0-2.2-1.1-3.1-2.5-2.1-3.3-1.6-13.6.9-16.3 1.6-1.8 1.6-2 .1-3.3-1.3-1-5.9-1.5-17.7-1.7l-16-.3-12.4-11.7c-7.1-6.8-14.9-13.2-18.5-15.2l-6.3-3.5-21-.1c-11.5-.1-23.8.2-27.2.6M165 35.9c4.1 2.8 18 16.2 18 17.3 0 .5-11.2.8-25 .8h-25V32.5l14.2.5c13 .5 14.6.7 17.8 2.9m-42.2 7.6.1 10.5H107c-10.5 0-16-.4-16-1 0-2 3.1-7.1 6.8-11.2 5-5.5 12.1-8.8 19.3-8.8h5.6zm25.1 20.9c2.4 2.9.2 4.6-5.9 4.6-5 0-6-.3-6.5-2-.3-1.1-.3-2.4 0-3 .9-1.5 11.1-1.2 12.4.4"/><path d="M138.5 38.1c-.9 2.7 6 10.1 8.9 9.7 3.3-.5 2.9-2.5-1.5-7.3-4.6-5-6.4-5.6-7.4-2.4M96.2 74c-4 .9-8.9 5.3-10.8 9.7-3.2 7.5-.7 15.1 6.6 20.1 2.9 2 4.5 2.3 9.5 2 7-.4 10.3-2.4 13.6-8.3 2.8-4.8 3-11.6.6-16.2-2.9-5.4-12.2-8.9-19.5-7.3m9.8 11c5.9 5.9-1.4 15.4-8.9 11.6-4.6-2.4-5.4-6.7-2-11 2.6-3.3 7.9-3.6 10.9-.6m93.1-11c-7.4 1.7-12.1 8-12.1 16.1 0 12.1 13.6 19.7 24.8 14 6.1-3.1 9.9-11.6 8.2-18.2-2.5-9-11.4-14.1-20.9-11.9m9.8 11.6c4.2 5.3 1.3 11.4-5.4 11.4s-9.6-6.1-5.4-11.4c1.5-1.9 3-2.6 5.4-2.6s3.9.7 5.4 2.6"/><path d="M52.9 82.7c-5.3 2.8-9.9 7.9-9.9 11.2 0 .9 1.5 4.1 3.3 7.1 2.7 4.6 4.2 6 9.7 8.7 14.3 7 9.6 6.7 101.1 7.1 70.5.2 83.7.1 89.9-1.2 16.4-3.4 29-12.5 29-20.9 0-3.5-4-8.9-8-10.9-2.1-1.1-5.7-1.8-9-1.8-7.9 0-10 .8-10 3.6 0 2.3.3 2.4 7.5 2.4 6.7 0 7.9.3 10 2.5 3 2.9 3.1 4.5.6 7.7-2.4 3-14 8.4-20.7 9.7-3.1.6-38.2.8-89 .6-90.8-.4-89.3-.3-98.8-5.9-9.7-5.7-10-12.5-.8-15.7 2.6-.9 3.2-1.6 3.2-4 0-3.6-1.2-3.6-8.1-.2"/><path d="M38.5 130.1c.5 17.7 1.1 27.1 2.2 30.9 3 11.2 10.8 19.6 23.8 25.7l6 2.8h180l6.6-3.1c14.4-6.8 22-17.8 24.4-34.8.5-3.5.9-4.5 1.6-3.5.7 1.1.9.9.9-.8 0-1.2-.4-2.3-1-2.5-.5-.2-1.2-8.8-1.6-20.1-.7-19.4-.7-19.7-2.8-19.1-1.2.3-2.5 1-3.1 1.6-.6.5-1.3 11.1-1.6 25.1-.7 26.6-1.3 30.1-7 37-3.7 4.6-10.5 9.3-16 11.2-3.4 1.2-17.7 1.6-82.2 2.1-45.7.3-82.2.2-87.8-.4-15.4-1.5-24.8-7.1-30.5-18.4-3.2-6.2-4.3-16.7-4.4-39.3 0-8.8-.4-16.6-.8-17.2-.4-.7-2.3-1.6-4.1-1.9l-3.2-.7z"/><path d="M66.5 129.8c-10.2 4.9-14 14.9-10 26.3 4.1 11.4 16.3 16 28.1 10.5 2.8-1.3 5.5-2.9 5.8-3.5.4-.6-.8-2.4-2.6-4-3.2-2.9-3.3-2.9-5.7-1-3 2.4-9.8 2.5-13 .3-2.5-1.8-5.1-7.1-5.1-10.5 0-3.9 3.1-8.7 6.6-10.4 3.8-1.8 8.2-1.4 12.3 1.2 2.2 1.4 2.5 1.3 4.7-1.3 1.3-1.6 2.2-3.4 2.1-3.9-.6-2-8.3-4.9-13.7-5.2-3.9-.3-6.7.2-9.5 1.5m116.1-.4c-5.5 2.1-6.3 3.1-4.1 5.6 1.8 2 3.5 2.1 9.6.4.8-.2 2.3.2 3.3.9 1.6 1.2 1.7 1.7.6 3.8-1.6 3-2.9 3.9-5.7 3.9-1.8 0-2.3.6-2.3 2.4 0 4.3 1 5.6 4.4 5.6 3.7 0 5.6 1.5 5.6 4.5 0 4.7-6 6-11.6 2.6l-3.2-1.9-2.1 2.8c-1.1 1.6-2.1 3.2-2.1 3.5 0 1.2 10.6 5.5 13.5 5.5 7.6-.1 14.5-6 14.5-12.5 0-3.2-2.4-8.1-4.5-8.8-1.3-.6-1.2-1 .4-3.9 1-1.8 2.2-5.2 2.5-7.6.6-4.2.5-4.3-2.9-5.8-5.4-2.2-11.5-2.6-15.9-1m34.2 3.7c-10 10.8-13.2 20.3-9.3 27.9 5.8 11.3 23 10 26.6-1.9 2.3-7.6-3.3-15.5-10.8-15.5-1.8 0-3.3-.3-3.3-.6 0-1.1 6.2-9.4 7.9-10.7 2-1.4.8-2.9-3.2-3.9-2.5-.6-3.4 0-7.9 4.7m8 19.1c2.8 2.8-.3 9.8-4.3 9.8-4.3 0-7.3-7.9-3.7-9.9 2.3-1.4 6.5-1.4 8 .1m19.1-20.9c-5.6 3.7-7.1 7.7-6.7 18.4.4 10.3 1.6 12.8 7.9 17.1 6 4.2 14 1.6 18.4-5.9 2.8-4.7 2.9-19.8.2-24.7-3.8-7-13.2-9.3-19.8-4.9m11.7 8.9c1.4 4 .6 15.8-1.1 18.5-5.2 7.8-10.8-5.8-7.5-17.9 1.5-5.4 6.9-5.7 8.6-.6m-157.9-1.8c-5.1 1.9-5.1 2-3.2 5 1.4 2.1 2.2 2.5 4.4 1.9 5.3-1.4 9.3-.8 11.2 1.6 3 3.7 2.4 4.3-3.6 3.6-5.8-.8-8.1.1-12.6 4.6-4.9 4.9.2 13.9 8.1 13.9 2.2 0 5.4-.7 7.1-1.5 2.6-1.4 3-1.4 3.5-.1.4 1.1 1.8 1.5 4.5 1.3l3.9-.2-.1-10c0-11.4-1.3-16-5-18.7-3.4-2.6-13.1-3.3-18.2-1.4m13.3 20.1c0 4.4-7.8 6-9.4 1.9-1-2.6 1.3-4.4 5.5-4.4 3.5 0 3.9.3 3.9 2.5m29.5-20.7c-1.1.2-2.8 1.1-3.7 2-1.6 1.4-1.8 1.4-1.8-.1 0-1.3-1-1.7-4.5-1.7H126v30.5l4.2-.1 4.3-.1.5-9.7c.5-10.5 1.7-12.6 6.6-12.6 1.5 0 2.4-.8 2.8-2.4.3-1.3.8-3.1 1.2-3.9.6-1.6-1.9-2.5-5.1-1.9m13.5-.1c-3.6 1.3-7 5.7-7 9 0 4.5 3.3 7.7 10.4 9.9 5.6 1.8 6.8 3.2 4.3 5.2-.9.8-2.8.5-6.7-.8l-5.5-1.9-2.2 2.7-2.3 2.7 3.3 1.7c7.9 4.2 16.8 3.1 21.2-2.6 4.8-6.3 2.4-11-6.9-13.6-5-1.4-7.2-3.2-6.1-5.1.8-1.1 7.3-.8 10.7.6 1.3.5 1.9-.1 2.6-2.7.8-3 .7-3.4-1.7-4.5-2.6-1.2-11.4-1.6-14.1-.6"/></svg>